# xmcd
#
# Track frame offsets:
#	150
#	13773
#	32573
#	51018
#	69930
#	88903
#	106003
#	121171
#	140422
#	157161
#	171944
#	188907
#	206017
#	223528
#	240127
#	260536
#
# Disc length: 3731 seconds
#
# Revision: 7
# Processed by: cddbd v1.5.2PL0 Copyright (c) Steve Scherf et al.
# Submitted via: audiograbber 1.83.01
#
DISCID=d80e9110
DTITLE=Chris Brown - Exclusive
DYEAR=2007
DGENRE=R&B
TTITLE0=Throwed
TTITLE1=Kiss Kiss (featuring T-Pain)
TTITLE2=Take You Down
TTITLE3=With You
TTITLE4=Picture Perfect (featuring Will.I.Am)
TTITLE5=Hold Up (featuring Big Boi)
TTITLE6=You
TTITLE7=Damage
TTITLE8=Wall To Wall
TTITLE9=Help Me
TTITLE10=I Wanna Be
TTITLE11=Gimme Whatcha Got (featuring Lil Wayne)
TTITLE12=I'll Call Ya
TTITLE13=Lottery
TTITLE14=Nice (featuring Game)
TTITLE15=Down (featuring Kanye West)
EXTD=
EXTT0=
EXTT1=
EXTT2=
EXTT3=
EXTT4=
EXTT5=
EXTT6=
EXTT7=
EXTT8=
EXTT9=
EXTT10=
EXTT11=
EXTT12=
EXTT13=
EXTT14=
EXTT15=
PLAYORDER=
